<svg width="30" height="33" viewBox="0 0 30 33" fill="none" xmlns="http://www.w3.org/2000/svg">
<path d="M15.0002 1.13112e-08C16.3464 -8.81309e-05 17.6416 0.514959 18.6201 1.43949C19.5986 2.36401 20.1862 3.62793 20.2624 4.97195L20.2705 5.27034H28.7841C29.0923 5.27043 29.3889 5.38749 29.6141 5.59786C29.8392 5.80824 29.9762 6.09624 29.9972 6.40367C30.0182 6.7111 29.9217 7.01505 29.7272 7.25409C29.5328 7.49313 29.2548 7.64944 28.9495 7.69145L28.7841 7.7028H27.4933L25.4176 28.8166C25.3136 29.8692 24.8389 30.8506 24.0781 31.5855C23.3174 32.3204 22.3202 32.7609 21.2646 32.8285L20.9792 32.8382H9.02119C7.96301 32.8382 6.93932 32.4619 6.13306 31.7765C5.3268 31.0912 4.79052 30.1415 4.62006 29.0971L4.58276 28.815L2.50544 7.7028H1.21623C0.922329 7.70279 0.638372 7.59635 0.416874 7.40317C0.195377 7.20999 0.0513222 6.94315 0.0113514 6.65197L0 6.48657C1.2394e-05 6.19266 0.106449 5.90871 0.299626 5.68721C0.492803 5.46571 0.759652 5.32166 1.05082 5.28169L1.21623 5.27034H9.72985C9.72985 3.87256 10.2851 2.53203 11.2735 1.54365C12.2619 0.555266 13.6024 1.13113e-08 15.0002 1.13112e-08V1.13112e-08ZM25.0495 7.7028H4.94925L7.00387 28.5766C7.04937 29.0423 7.25461 29.478 7.58478 29.8096C7.91495 30.1413 8.3497 30.3485 8.81524 30.3961L9.02119 30.4058H20.9792C21.9522 30.4058 22.7776 29.7166 22.9657 28.7809L22.9981 28.5766L25.0479 7.7028H25.0495ZM17.8381 12.1623C18.132 12.1623 18.4159 12.2688 18.6374 12.4619C18.8589 12.6551 19.003 12.922 19.0429 13.2131L19.0543 13.3785V24.73C19.0542 25.0382 18.9371 25.3348 18.7268 25.56C18.5164 25.7851 18.2284 25.9221 17.921 25.9431C17.6135 25.9641 17.3096 25.8676 17.0705 25.6731C16.8315 25.4787 16.6752 25.2007 16.6332 24.8954L16.6218 24.73V13.3785C16.6218 13.056 16.75 12.7466 16.9781 12.5185C17.2061 12.2905 17.5155 12.1623 17.8381 12.1623ZM12.1623 12.1623C12.4562 12.1623 12.7402 12.2688 12.9617 12.4619C13.1832 12.6551 13.3272 12.922 13.3672 13.2131L13.3785 13.3785V24.73C13.3784 25.0382 13.2614 25.3348 13.051 25.56C12.8406 25.7851 12.5526 25.9221 12.2452 25.9431C11.9378 25.9641 11.6338 25.8676 11.3948 25.6731C11.1557 25.4787 10.9994 25.2007 10.9574 24.8954L10.9461 24.73V13.3785C10.9461 13.056 11.0742 12.7466 11.3023 12.5185C11.5304 12.2905 11.8397 12.1623 12.1623 12.1623ZM15.0002 2.43246C14.288 2.43249 13.6018 2.70031 13.0779 3.18276C12.554 3.66522 12.2306 4.32703 12.172 5.03682L12.1623 5.27034H17.8381C17.8381 4.51768 17.5391 3.79586 17.0069 3.26366C16.4747 2.73145 15.7528 2.43246 15.0002 2.43246Z" fill="white"/>
</svg>
