<svg width="313" height="313" viewBox="0 0 313 313" fill="none" xmlns="http://www.w3.org/2000/svg">
<path d="M294.658 18.3435C282.829 6.51431 267.103 0 250.375 0C233.647 0 217.92 6.51431 206.092 18.3429L31.0715 193.364C29.5823 194.853 28.5033 196.702 27.9384 198.731L0.448193 297.495C-0.737172 301.755 0.468978 306.323 3.60448 309.441C5.92753 311.752 9.04041 313 12.2279 313C13.3417 313 14.4653 312.847 15.5676 312.534L114.332 284.48C118.499 283.296 121.729 279.996 122.822 275.804C123.915 271.612 122.708 267.155 119.65 264.086L57.3849 201.633L202.462 56.5546L256.417 110.509L145.354 221.269C140.573 226.037 140.563 233.779 145.331 238.56C150.099 243.342 157.841 243.351 162.622 238.584L294.657 106.908C306.486 95.0799 313 79.3534 313 62.6257C313 45.8979 306.486 30.1715 294.658 18.3435ZM87.6615 266.636L29.8494 283.057L46.0404 224.888L87.6615 266.636ZM277.378 89.6054L273.731 93.2422L219.754 39.2638L223.384 35.6337C230.593 28.4237 240.179 24.4531 250.375 24.4531C260.571 24.4531 270.156 28.4237 277.366 35.6343C284.576 42.8437 288.547 52.4293 288.547 62.6257C288.547 72.822 284.576 82.4076 277.378 89.6054Z" fill="white"/>
</svg>
